<?xml version="1.0" encoding="utf-8"?>
<!-- Generator: Adobe Illustrator 21.1.0, SVG Export Plug-In . SVG Version: 6.00 Build 0)  -->
<svg version="1.1" id="Layer_1" xmlns="http://www.w3.org/2000/svg" xmlns:xlink="http://www.w3.org/1999/xlink" x="0px" y="0px"
	 viewBox="0 0 1055 203.6" style="enable-background:new 0 0 1055 203.6;" xml:space="preserve">
<style type="text/css">
	.st0{fill:none;stroke:#FFFFFF;stroke-width:12.467;stroke-miterlimit:10;}
</style>
<g>
	<path d="M106.5,155.8H66l-32.5-47.7h-0.6v47.7H0V5h32.9v91.8h0.6l31.7-40.3h39.7l-38.3,44.9L106.5,155.8z"/>
	<path d="M213.4,107.3c0,1.3,0,2.7,0,4c0,1.3-0.1,2.6-0.2,3.8h-72c0.3,2.8,1.1,5.3,2.5,7.6c1.4,2.3,3.2,4.2,5.4,5.9
		c2.2,1.7,4.7,3,7.4,3.9c2.7,0.9,5.5,1.4,8.5,1.4c5.2,0,9.6-1,13.2-2.9c3.6-1.9,6.5-4.4,8.8-7.5l22.7,14.4
		c-4.7,6.8-10.8,12-18.5,15.7c-7.6,3.7-16.5,5.5-26.6,5.5c-7.4,0-14.5-1.2-21.1-3.5c-6.7-2.3-12.5-5.7-17.5-10.2
		c-5-4.5-8.9-9.9-11.8-16.5c-2.9-6.5-4.3-14-4.3-22.3c0-8.1,1.4-15.5,4.2-22c2.8-6.6,6.6-12.2,11.4-16.8c4.8-4.6,10.4-8.1,17-10.7
		c6.5-2.5,13.6-3.8,21.1-3.8c7.3,0,14,1.2,20.1,3.7c6.1,2.5,11.4,6,15.8,10.7c4.4,4.7,7.8,10.3,10.3,17
		C212.2,91.2,213.4,98.8,213.4,107.3z M183.3,94.8c0-5.2-1.6-9.6-4.9-13.4c-3.3-3.7-8.1-5.6-14.7-5.6c-3.2,0-6.1,0.5-8.8,1.5
		c-2.7,1-5,2.4-7,4.1c-2,1.7-3.6,3.8-4.8,6.1c-1.2,2.3-1.9,4.8-2,7.3H183.3z"/>
	<path d="M299,155.8v-54.3c0-2.8-0.2-5.5-0.7-8c-0.5-2.5-1.2-4.8-2.3-6.7c-1.1-1.9-2.6-3.5-4.5-4.6c-1.9-1.1-4.4-1.7-7.3-1.7
		c-2.9,0-5.5,0.6-7.7,1.7c-2.2,1.1-4,2.7-5.5,4.7c-1.5,2-2.6,4.3-3.3,6.9c-0.7,2.6-1.1,5.3-1.1,8.1v53.9h-32.9V56.5h31.7v13.8h0.4
		c1.2-2.1,2.8-4.2,4.7-6.3c1.9-2.1,4.2-3.8,6.8-5.3c2.6-1.5,5.4-2.7,8.5-3.6c3.1-0.9,6.3-1.4,9.8-1.4c6.6,0,12.3,1.2,17,3.6
		c4.7,2.4,8.4,5.5,11.3,9.3c2.9,3.8,4.9,8.1,6.2,13.1c1.3,4.9,1.9,9.8,1.9,14.8v61.4H299z"/>
	<path d="M392.2,43.7v29.1h54.7v28.1h-54.7v54.9h-33.7V14.6h93v29.1H392.2z"/>
	<path d="M460.6,70c5.9-5.6,12.7-9.8,20.4-12.6c7.8-2.8,15.7-4.2,23.8-4.2c8.4,0,15.5,1,21.2,3.1c5.8,2.1,10.5,5.3,14.1,9.6
		c3.6,4.3,6.2,9.8,7.9,16.4c1.7,6.6,2.5,14.4,2.5,23.4v50.1h-29.9v-10.6H520c-2.5,4.1-6.4,7.3-11.5,9.6c-5.1,2.3-10.7,3.4-16.7,3.4
		c-4,0-8.1-0.5-12.4-1.6c-4.3-1.1-8.1-2.8-11.7-5.2c-3.5-2.4-6.4-5.6-8.7-9.6c-2.3-4-3.4-8.9-3.4-14.8c0-7.2,2-13,5.9-17.4
		c3.9-4.4,9-7.8,15.2-10.2c6.2-2.4,13.1-4,20.6-4.8c7.6-0.8,15-1.2,22.1-1.2V92c0-4.9-1.7-8.5-5.2-10.9c-3.5-2.3-7.7-3.5-12.8-3.5
		c-4.7,0-9.1,1-13.5,3c-4.3,2-8,4.4-11.1,7.2L460.6,70z M520.6,112.5h-4.2c-3.6,0-7.2,0.2-10.9,0.5c-3.7,0.3-6.9,1-9.8,1.9
		c-2.9,0.9-5.2,2.3-7.1,4.1c-1.9,1.8-2.8,4.2-2.8,7.1c0,1.9,0.4,3.5,1.3,4.8c0.9,1.3,2,2.4,3.3,3.2c1.3,0.8,2.9,1.4,4.6,1.7
		c1.7,0.3,3.4,0.5,5,0.5c6.6,0,11.7-1.8,15.3-5.5c3.5-3.7,5.3-8.6,5.3-14.9V112.5z"/>
	<path d="M643.5,88.6c-1.9-2.4-4.4-4.3-7.6-5.8c-3.2-1.5-6.5-2.2-9.8-2.2c-3.5,0-6.6,0.7-9.4,2.1c-2.8,1.4-5.2,3.3-7.2,5.6
		c-2,2.3-3.6,5-4.7,8.1c-1.1,3.1-1.7,6.3-1.7,9.8c0,3.5,0.5,6.7,1.6,9.8c1.1,3.1,2.6,5.8,4.7,8.1c2.1,2.3,4.5,4.2,7.4,5.5
		c2.9,1.3,6.1,2,9.7,2c3.3,0,6.6-0.6,9.9-1.9c3.3-1.3,5.9-3.1,7.9-5.5l18.2,22.1c-4.1,4-9.4,7.1-16,9.4c-6.5,2.3-13.4,3.4-20.7,3.4
		c-7.8,0-15.2-1.2-22-3.6c-6.8-2.4-12.7-5.9-17.7-10.5c-5-4.6-9-10.1-11.8-16.7c-2.9-6.5-4.3-13.9-4.3-22.1c0-8.1,1.4-15.4,4.3-21.9
		c2.9-6.5,6.8-12.1,11.8-16.7c5-4.6,10.9-8.1,17.7-10.6c6.8-2.5,14.1-3.7,21.8-3.7c3.6,0,7.1,0.3,10.7,1c3.5,0.7,6.9,1.6,10.2,2.7
		c3.3,1.1,6.2,2.5,9,4.2c2.7,1.7,5.1,3.5,7.1,5.5L643.5,88.6z"/>
	<path d="M710.7,80.8v38c0,4.7,0.9,8.2,2.7,10.5c1.8,2.3,5,3.5,9.7,3.5c1.6,0,3.3-0.1,5.1-0.4c1.8-0.3,3.3-0.7,4.5-1.2l0.4,23.9
		c-2.3,0.8-5.1,1.5-8.6,2.1c-3.5,0.6-6.9,0.9-10.4,0.9c-6.7,0-12.2-0.8-16.8-2.5c-4.5-1.7-8.1-4.1-10.9-7.2
		c-2.7-3.1-4.7-6.9-5.9-11.2c-1.2-4.3-1.8-9.2-1.8-14.5v-42h-16V56.5h15.8V30.3h32.1v26.1h23.3v24.3H710.7z"/>
	<path d="M854.7,105.7c0,8.1-1.5,15.5-4.4,22c-2.9,6.6-6.9,12.2-12,16.8c-5.1,4.6-10.9,8.1-17.6,10.7c-6.7,2.5-13.8,3.8-21.3,3.8
		c-7.4,0-14.5-1.3-21.2-3.8c-6.7-2.5-12.6-6.1-17.6-10.7c-5-4.6-8.9-10.2-11.9-16.8c-2.9-6.6-4.4-13.9-4.4-22
		c0-8.1,1.5-15.4,4.4-21.9c2.9-6.5,6.9-12,11.9-16.6c5-4.5,10.8-8,17.6-10.4c6.7-2.4,13.8-3.6,21.2-3.6c7.6,0,14.7,1.2,21.3,3.6
		c6.6,2.4,12.5,5.9,17.6,10.4c5,4.5,9,10,12,16.6C853.3,90.3,854.7,97.6,854.7,105.7z M823.2,105.7c0-3.2-0.5-6.3-1.6-9.4
		c-1.1-3.1-2.6-5.8-4.6-8.1c-2-2.3-4.5-4.2-7.4-5.7c-2.9-1.5-6.3-2.2-10.2-2.2c-3.9,0-7.3,0.7-10.2,2.2c-2.9,1.5-5.4,3.4-7.3,5.7
		c-1.9,2.3-3.4,5-4.4,8.1c-1,3.1-1.5,6.2-1.5,9.4c0,3.2,0.5,6.3,1.5,9.4c1,3.1,2.5,5.8,4.5,8.3c2,2.5,4.5,4.4,7.4,5.9
		c2.9,1.5,6.3,2.2,10.2,2.2c3.9,0,7.2-0.7,10.2-2.2c2.9-1.5,5.4-3.4,7.4-5.9c2-2.5,3.5-5.2,4.5-8.3
		C822.7,112.1,823.2,108.9,823.2,105.7z"/>
	<path d="M939.9,83.4c-1.5-0.4-2.9-0.7-4.3-0.8c-1.4-0.1-2.8-0.2-4.1-0.2c-4.4,0-8.1,0.8-11.1,2.4c-3,1.6-5.4,3.5-7.2,5.8
		c-1.8,2.3-3.1,4.7-3.9,7.4c-0.8,2.7-1.2,5-1.2,7v50.9h-32.7V56.6H907v14.4h0.4c2.5-5.1,6.1-9.2,10.8-12.5c4.7-3.2,10-4.8,16.2-4.8
		c1.3,0,2.6,0.1,3.9,0.2c1.3,0.1,2.3,0.3,3.1,0.6L939.9,83.4z"/>
	<path d="M1010.5,170.8c-2,5.2-4.2,9.8-6.7,13.9c-2.5,4.1-5.4,7.5-8.8,10.4c-3.4,2.9-7.4,5-12,6.5c-4.6,1.5-10,2.2-16.3,2.2
		c-3.1,0-6.2-0.2-9.5-0.6c-3.3-0.4-6.1-0.9-8.5-1.6l3.6-27.5c1.6,0.5,3.4,1,5.3,1.3c1.9,0.3,3.7,0.5,5.3,0.5c5.1,0,8.7-1.2,11-3.5
		c2.3-2.3,4.2-5.6,5.8-9.9l3.2-8.2l-41.5-97.7h36.3l22.1,63.8h0.6l19.7-63.8h34.7L1010.5,170.8z"/>
</g>
</svg>
