<?xml version="1.0" encoding="utf-8"?>
<!-- Generator: Adobe Illustrator 21.1.0, SVG Export Plug-In . SVG Version: 6.00 Build 0)  -->
<svg version="1.1" id="Layer_1" xmlns="http://www.w3.org/2000/svg" xmlns:xlink="http://www.w3.org/1999/xlink" x="0px" y="0px"
	 viewBox="0 0 110.3 203.6" style="enable-background:new 0 0 110.3 203.6;" xml:space="preserve">
<style type="text/css">
	.st0{fill:none;stroke:#FFFFFF;stroke-width:12.467;stroke-miterlimit:10;}
</style>
<path d="M60.7,130.9c1.7-0.4,3.3-0.9,4.7-1.6c2.9-1.5,5.4-3.4,7.4-5.9c2-2.5,3.5-5.2,4.5-8.3c1-3.1,1.5-6.2,1.5-9.4
	c0-3.2-0.5-6.3-1.6-9.4c-1.1-3.1-2.6-5.8-4.6-8.1c-2-2.3-4.5-4.2-7.4-5.7c-1.4-0.7-2.9-1.2-4.5-1.6V53.5c5.5,0.4,10.7,1.6,15.7,3.4
	C83,59.3,88.9,62.7,94,67.2c5.1,4.5,9,10,12,16.6c2.9,6.5,4.4,13.8,4.4,21.9c0,8.1-1.5,15.5-4.4,22c-2.9,6.6-6.9,12.2-12,16.8
	c-5.1,4.6-10.9,8.1-17.6,10.7c-4.9,1.9-10.3,3-15.7,3.5V130.9z M47.7,158.6c-4.8-0.6-9.4-1.7-13.9-3.4c-6.7-2.5-12.6-6.1-17.6-10.7
	c-5-4.6-8.9-10.2-11.9-16.8c-2.9-6.6-4.4-13.9-4.4-22c0-8.1,1.5-15.4,4.4-21.9c2.9-6.5,6.9-12,11.9-16.6c5-4.5,10.8-8,17.6-10.4
	c4.5-1.6,9-2.7,13.9-3.2v27.7c-1.1,0.3-1.8,0.8-2.8,1.3c-2.9,1.5-5.4,3.4-7.3,5.7c-1.9,2.3-3.4,5-4.4,8.1c-1,3.1-1.5,6.2-1.5,9.4
	c0,3.2,0.5,6.3,1.5,9.4c1,3.1,2.5,5.8,4.5,8.3c2,2.5,4.5,4.4,7.4,5.9c0.9,0.5,1.6,0.9,2.6,1.2V158.6z"/>
</svg>
