<?xml version="1.0" encoding="utf-8"?>
<!-- Generator: Adobe Illustrator 21.1.0, SVG Export Plug-In . SVG Version: 6.00 Build 0)  -->
<svg version="1.1" id="Layer_1" xmlns="http://www.w3.org/2000/svg" xmlns:xlink="http://www.w3.org/1999/xlink" x="0px" y="0px"
	 viewBox="0 0 1101.8 171.6" style="enable-background:new 0 0 1101.8 171.6;" xml:space="preserve">
<style type="text/css">
	.st0{fill:none;stroke:#FFFFFF;stroke-width:10.6498;stroke-miterlimit:10;}
</style>
<g>
	<path d="M63.2,34.9v95.8H34.1V34.9H0V10h97.3v24.9H63.2z"/>
	<path d="M140.3,109.4c1.4-0.3,2.8-0.8,4-1.4c2.5-1.2,4.6-2.9,6.3-5c1.7-2.1,3-4.5,3.8-7.1c0.9-2.6,1.3-5.3,1.3-8s-0.5-5.4-1.4-8
		c-0.9-2.6-2.2-4.9-3.9-6.9c-1.7-2-3.8-3.6-6.3-4.9c-1.2-0.6-2.5-1.1-3.9-1.4V43.3c4.7,0.4,9.2,1.3,13.4,2.9c5.7,2,10.7,5,15,8.9
		c4.3,3.9,7.7,8.6,10.2,14.1c2.5,5.6,3.7,11.8,3.7,18.7c0,6.9-1.3,13.2-3.7,18.8c-2.5,5.6-5.9,10.4-10.2,14.3c-4.3,3.9-9.3,7-15,9.1
		c-4.2,1.6-8.8,2.6-13.4,3V109.4z M129.2,133c-4.1-0.5-8-1.4-11.9-2.9c-5.7-2.2-10.7-5.2-15-9.1c-4.3-3.9-7.6-8.7-10.1-14.3
		c-2.5-5.6-3.7-11.9-3.7-18.8c0-6.9,1.2-13.2,3.7-18.7c2.5-5.6,5.9-10.3,10.1-14.1c4.3-3.9,9.3-6.8,15-8.9c3.8-1.4,7.7-2.3,11.9-2.7
		V67c-1,0.3-1.5,0.6-2.4,1.1c-2.5,1.3-4.6,2.9-6.2,4.9c-1.6,2-2.9,4.3-3.7,6.9c-0.9,2.6-1.3,5.3-1.3,8s0.4,5.4,1.3,8
		c0.9,2.6,2.1,5,3.8,7.1c1.7,2.1,3.8,3.8,6.3,5c0.8,0.4,1.3,0.7,2.2,1V133z"/>
	<path d="M291.5,130.7H257l-27.8-40.7h-0.5v40.7h-28.1V1.8h28.1v78.4h0.5l27.1-34.4h33.9l-32.7,38.3L291.5,130.7z"/>
	<path d="M382.9,89.3c0,1.1,0,2.3,0,3.4c0,1.1-0.1,2.2-0.2,3.2h-61.5c0.2,2.4,0.9,4.5,2.1,6.5c1.2,1.9,2.7,3.6,4.6,5
		c1.9,1.4,4,2.5,6.3,3.3c2.3,0.8,4.7,1.2,7.2,1.2c4.4,0,8.2-0.8,11.2-2.5c3.1-1.6,5.6-3.8,7.5-6.4l19.4,12.3
		c-4,5.8-9.2,10.3-15.8,13.4c-6.5,3.1-14.1,4.7-22.7,4.7c-6.4,0-12.4-1-18.1-3c-5.7-2-10.6-4.9-14.9-8.7c-4.3-3.8-7.6-8.5-10.1-14.1
		c-2.4-5.6-3.7-11.9-3.7-19.1c0-6.9,1.2-13.2,3.6-18.8s5.6-10.4,9.7-14.3c4.1-3.9,8.9-7,14.5-9.1c5.6-2.2,11.6-3.2,18.1-3.2
		c6.2,0,12,1.1,17.2,3.2c5.2,2.1,9.7,5.1,13.5,9.1c3.7,4,6.7,8.8,8.8,14.5C381.8,75.5,382.9,82,382.9,89.3z M357.1,78.5
		c0-4.4-1.4-8.2-4.2-11.4c-2.8-3.2-7-4.8-12.5-4.8c-2.7,0-5.2,0.4-7.5,1.3c-2.3,0.9-4.3,2-6,3.5c-1.7,1.5-3.1,3.2-4.1,5.2
		c-1,2-1.6,4.1-1.7,6.2H357.1z"/>
	<path d="M456,130.7V84.3c0-2.4-0.2-4.7-0.6-6.8c-0.4-2.2-1.1-4.1-2-5.7c-0.9-1.6-2.2-3-3.8-3.9c-1.6-1-3.7-1.4-6.2-1.4
		c-2.5,0-4.7,0.5-6.6,1.4c-1.9,1-3.4,2.3-4.7,4c-1.3,1.7-2.2,3.7-2.8,5.9c-0.6,2.2-0.9,4.5-0.9,6.9v46h-28.1V45.8h27.1v11.8h0.3
		c1-1.8,2.4-3.6,4-5.4c1.6-1.8,3.6-3.3,5.8-4.5c2.2-1.2,4.6-2.3,7.2-3.1c2.6-0.8,5.4-1.2,8.3-1.2c5.7,0,10.5,1,14.5,3.1
		c4,2,7.2,4.7,9.6,7.9c2.4,3.2,4.2,7,5.3,11.2c1.1,4.2,1.6,8.4,1.6,12.6v52.5H456z"/>
	<path d="M535.6,34.9v24.9h46.7v24h-46.7v46.9h-28.8V10h79.4v24.9H535.6z"/>
	<path d="M594,57.4c5-4.8,10.8-8.3,17.5-10.7c6.6-2.4,13.4-3.6,20.4-3.6c7.2,0,13.2,0.9,18.1,2.6c4.9,1.8,8.9,4.5,12,8.2
		c3.1,3.7,5.3,8.3,6.7,14c1.4,5.6,2.1,12.3,2.1,20v42.8h-25.6v-9h-0.5c-2.2,3.5-5.4,6.2-9.8,8.2c-4.4,1.9-9.1,2.9-14.2,2.9
		c-3.4,0-6.9-0.5-10.6-1.4c-3.6-0.9-7-2.4-10-4.4c-3-2-5.5-4.8-7.4-8.2c-1.9-3.4-2.9-7.6-2.9-12.6c0-6.1,1.7-11.1,5-14.8
		c3.3-3.7,7.7-6.6,12.9-8.7c5.3-2,11.2-3.4,17.6-4.1c6.5-0.7,12.8-1,18.9-1v-1.4c0-4.2-1.5-7.3-4.4-9.3c-3-2-6.6-3-10.9-3
		c-4,0-7.8,0.9-11.5,2.6c-3.7,1.7-6.8,3.7-9.5,6.1L594,57.4z M645.3,93.7h-3.6c-3.1,0-6.2,0.1-9.3,0.4c-3.1,0.3-5.9,0.8-8.3,1.6
		c-2.4,0.8-4.5,2-6,3.5c-1.6,1.5-2.4,3.6-2.4,6c0,1.6,0.4,3,1.1,4.1c0.7,1.1,1.7,2,2.8,2.7c1.1,0.7,2.4,1.2,3.9,1.4
		c1.5,0.3,2.9,0.4,4.3,0.4c5.7,0,10-1.6,13-4.7c3-3.1,4.5-7.4,4.5-12.7V93.7z"/>
	<path d="M750.2,73.2c-1.6-2-3.7-3.7-6.5-4.9c-2.7-1.2-5.5-1.9-8.3-1.9c-3,0-5.6,0.6-8,1.8c-2.4,1.2-4.4,2.8-6.1,4.8
		c-1.7,2-3,4.3-4,6.9c-1,2.6-1.4,5.4-1.4,8.3c0,3,0.5,5.7,1.4,8.3c0.9,2.6,2.2,4.9,4,6.9c1.8,2,3.9,3.6,6.3,4.7
		c2.4,1.1,5.2,1.7,8.3,1.7c2.8,0,5.7-0.5,8.4-1.6c2.8-1.1,5-2.6,6.7-4.7l15.5,18.9c-3.5,3.4-8.1,6.1-13.6,8
		c-5.6,1.9-11.5,2.9-17.7,2.9c-6.7,0-13-1-18.8-3.1c-5.8-2-10.9-5-15.1-8.9c-4.3-3.9-7.7-8.7-10.1-14.2c-2.5-5.6-3.7-11.9-3.7-18.9
		c0-6.9,1.2-13.2,3.7-18.7c2.5-5.6,5.8-10.3,10.1-14.2c4.3-3.9,9.3-6.9,15.1-9c5.8-2.1,12-3.2,18.6-3.2c3.1,0,6.1,0.3,9.1,0.9
		c3,0.6,5.9,1.3,8.7,2.3c2.8,1,5.3,2.2,7.7,3.6c2.3,1.4,4.3,3,6,4.7L750.2,73.2z"/>
	<path d="M807.7,66.6v32.5c0,4,0.8,7,2.3,9c1.5,2,4.3,3,8.3,3c1.4,0,2.8-0.1,4.3-0.3c1.5-0.2,2.8-0.6,3.8-1l0.3,20.4
		c-1.9,0.7-4.4,1.3-7.3,1.8c-3,0.5-5.9,0.8-8.9,0.8c-5.7,0-10.5-0.7-14.3-2.1c-3.9-1.4-7-3.5-9.3-6.1c-2.3-2.7-4-5.9-5-9.6
		c-1-3.7-1.5-7.8-1.5-12.4V66.6h-13.6V45.8h13.5V23.5h27.4v22.3h19.9v20.8H807.7z"/>
	<path d="M930.7,87.9c0,6.9-1.3,13.2-3.7,18.8c-2.5,5.6-5.9,10.4-10.2,14.3c-4.3,3.9-9.3,7-15,9.1c-5.7,2.2-11.8,3.2-18.2,3.2
		c-6.4,0-12.4-1.1-18.1-3.2c-5.7-2.2-10.7-5.2-15-9.1c-4.3-3.9-7.6-8.7-10.1-14.3c-2.5-5.6-3.7-11.9-3.7-18.8
		c0-6.9,1.2-13.2,3.7-18.7c2.5-5.6,5.9-10.3,10.1-14.1c4.3-3.9,9.3-6.8,15-8.9c5.7-2,11.8-3.1,18.1-3.1c6.5,0,12.5,1,18.2,3.1
		c5.7,2,10.7,5,15,8.9c4.3,3.9,7.7,8.6,10.2,14.1C929.4,74.7,930.7,81,930.7,87.9z M903.8,87.9c0-2.7-0.5-5.4-1.4-8
		c-0.9-2.6-2.2-4.9-3.9-6.9c-1.7-2-3.8-3.6-6.3-4.9c-2.5-1.2-5.4-1.9-8.7-1.9c-3.3,0-6.2,0.6-8.7,1.9c-2.5,1.3-4.6,2.9-6.2,4.9
		c-1.6,2-2.9,4.3-3.7,6.9c-0.9,2.6-1.3,5.3-1.3,8s0.4,5.4,1.3,8c0.9,2.6,2.1,5,3.8,7.1c1.7,2.1,3.8,3.8,6.3,5
		c2.5,1.2,5.4,1.9,8.7,1.9c3.3,0,6.2-0.6,8.7-1.9c2.5-1.2,4.6-2.9,6.3-5c1.7-2.1,3-4.5,3.8-7.1C903.3,93.3,903.8,90.6,903.8,87.9z"
		/>
	<path d="M1003.5,68.8c-1.3-0.3-2.5-0.6-3.7-0.7c-1.2-0.1-2.4-0.2-3.5-0.2c-3.7,0-6.9,0.7-9.5,2c-2.6,1.4-4.6,3-6.1,4.9
		c-1.5,1.9-2.6,4-3.3,6.3c-0.7,2.3-1,4.2-1,5.9v43.5h-27.9V45.9h26.9v12.3h0.3c2.2-4.3,5.2-7.9,9.2-10.6c4-2.7,8.6-4.1,13.8-4.1
		c1.1,0,2.2,0.1,3.3,0.2c1.1,0.1,2,0.3,2.6,0.5L1003.5,68.8z"/>
	<path d="M1063.8,143.4c-1.7,4.4-3.6,8.4-5.7,11.8c-2.1,3.5-4.6,6.4-7.5,8.9c-2.9,2.4-6.3,4.3-10.2,5.5c-3.9,1.2-8.5,1.9-13.9,1.9
		c-2.6,0-5.3-0.2-8.1-0.5c-2.8-0.3-5.2-0.8-7.2-1.4l3.1-23.5c1.4,0.5,2.9,0.8,4.5,1.1c1.6,0.3,3.2,0.4,4.5,0.4c4.3,0,7.4-1,9.4-3
		c1.9-2,3.6-4.8,4.9-8.4l2.7-7l-35.4-83.5h31l18.9,54.5h0.5l16.9-54.5h29.6L1063.8,143.4z"/>
</g>
<path class="st0" d="M135.1,0"/>
</svg>
